<svg width="181" height="45" viewBox="0 0 181 45" fill="none" xmlns="http://www.w3.org/2000/svg">
<path d="M4.98117 33.3224C3.83965 32.8388 3.00946 32.2169 2.49059 31.4568C1.97171 30.6967 1.71228 29.7812 1.71228 28.7102C1.71228 27.7428 1.97171 26.8963 2.49059 26.1708C3.04405 25.4453 3.77047 24.8752 4.66985 24.4606V24.3052C3.80506 23.6142 3.16512 22.7505 2.75002 21.714C2.36952 20.643 2.17926 19.4165 2.17926 18.0345C2.17926 15.2706 3.07864 13.1631 4.8774 11.7121C6.67616 10.261 9.78939 9.53551 14.2171 9.53551C17.8492 9.53551 20.6165 10.0537 22.5191 11.0902H22.7785C23.332 10.1919 24.0411 9.44914 24.9059 8.8618C25.7707 8.27447 26.8257 7.98081 28.071 7.98081C28.4515 7.98081 28.7974 7.99808 29.1087 8.03263C29.4201 8.03263 29.7141 8.0499 29.9908 8.08445V14.4587C29.3336 14.3205 28.5553 14.2514 27.6559 14.2514C26.9295 14.2514 26.2376 14.3205 25.5804 14.4587C25.9609 15.4607 26.1512 16.6526 26.1512 18.0345C26.1512 21.0058 25.2518 23.1478 23.453 24.4606C21.6543 25.7735 18.5756 26.4299 14.2171 26.4299C13.2139 26.4299 12.28 26.3954 11.4152 26.3263C10.5504 26.2572 9.7548 26.1535 9.02838 26.0154C8.89001 26.2917 8.82083 26.62 8.82083 27C8.82083 27.5528 8.99378 28.0192 9.3397 28.3992C9.72021 28.7447 10.3601 28.9175 11.2595 28.9175H18.7313C21.9137 28.9175 24.2832 29.4184 25.8398 30.4203C27.431 31.4223 28.2266 33.357 28.2266 36.2246C28.2266 39.0576 27.1197 41.2169 24.9059 42.7025C22.692 44.1881 18.9561 44.9309 13.6982 44.9309C9.37429 44.9309 6.22647 44.3436 4.25475 43.1689C2.28304 42.0288 1.29718 40.3532 1.29718 38.142C1.29718 36.9328 1.6258 35.9309 2.28304 35.1363C2.94028 34.3071 3.83965 33.7543 4.98117 33.4779V33.3224ZM14.2171 20.8848C15.8429 20.8848 16.9844 20.6948 17.6417 20.3148C18.2989 19.9002 18.6275 19.1747 18.6275 18.1382C18.6275 17.1017 18.2989 16.3417 17.6417 15.858C16.9844 15.3743 15.8429 15.1324 14.2171 15.1324C12.5567 15.1324 11.3979 15.3743 10.7407 15.858C10.0834 16.3417 9.7548 17.1017 9.7548 18.1382C9.7548 19.1747 10.0834 19.9002 10.7407 20.3148C11.3979 20.6948 12.5567 20.8848 14.2171 20.8848ZM14.6841 38.8157C16.5174 38.8157 17.8665 38.7294 18.7313 38.5566C19.5961 38.3839 20.1668 38.1248 20.4436 37.7793C20.7203 37.4338 20.8587 37.0019 20.8587 36.4837C20.8587 35.8963 20.6857 35.4299 20.3398 35.0844C19.9939 34.7044 19.475 34.5144 18.7832 34.5144H10.8444C10.1526 34.5144 9.63373 34.7044 9.28781 35.0844C8.9419 35.4299 8.76894 35.8963 8.76894 36.4837C8.76894 37.0019 8.90731 37.4338 9.18404 37.7793C9.49536 38.1248 10.0661 38.3839 10.8963 38.5566C11.7611 38.7294 13.0237 38.8157 14.6841 38.8157ZM40.9058 35.0326H32.6039V9.79463H39.3492L40.0237 14.977H40.1794C40.4907 13.0422 41.2344 11.6603 42.4105 10.8311C43.5866 9.96737 45.3335 9.53551 47.6511 9.53551C48.5851 9.53551 49.4326 9.58733 50.1936 9.69098C50.9546 9.76008 51.5946 9.82917 52.1134 9.89827V17.9827L52.0097 18.0864C51.4562 17.9482 50.8163 17.8273 50.0898 17.7236C49.398 17.62 48.6024 17.5681 47.703 17.5681C46.4231 17.5681 45.2643 17.7754 44.2266 18.19C43.2234 18.6046 42.4278 19.4165 41.8398 20.6257C41.2863 21.8004 41.0096 23.5624 41.0096 25.9117L40.9058 35.0326ZM53.9445 22.595C53.9445 17.9655 54.9303 14.6315 56.902 12.5931C58.8737 10.5547 62.2118 9.53551 66.9163 9.53551C70.0641 9.53551 72.5893 9.98465 74.4918 10.8829C76.3943 11.7812 77.7607 13.1977 78.5909 15.1324C79.4557 17.0326 79.8881 19.5202 79.8881 22.595C79.8881 25.6353 79.4557 28.1056 78.5909 30.0058C77.7607 31.9059 76.3943 33.3052 74.4918 34.2034C72.5893 35.0672 70.0641 35.499 66.9163 35.499C62.2118 35.499 58.8737 34.4971 56.902 32.4933C54.9303 30.4549 53.9445 27.1555 53.9445 22.595ZM66.9163 28.3992C68.9226 28.3992 70.2716 27.9674 70.9635 27.1036C71.6899 26.2054 72.0531 24.6507 72.0531 22.4395C72.0531 20.3321 71.6899 18.8292 70.9635 17.9309C70.2716 16.9981 68.9226 16.5317 66.9163 16.5317C64.9791 16.5317 63.6301 16.9981 62.8691 17.9309C62.1426 18.8292 61.7794 20.3321 61.7794 22.4395C61.7794 24.6507 62.1426 26.2054 62.8691 27.1036C63.6301 27.9674 64.9791 28.3992 66.9163 28.3992ZM108.104 9.9501L99.8544 35.0326H89.4769L81.694 9.89827V9.79463H91.0335C91.76 12.4894 92.4345 15.4088 93.0571 18.5528C93.7144 21.6967 94.3024 24.7198 94.8213 27.6219H95.0288C95.5477 24.7198 96.1185 21.6967 96.7411 18.5528C97.3984 15.4088 98.0902 12.4894 98.8166 9.79463H108.104V9.9501ZM119.587 0.414588C119.691 1.65835 119.743 2.69482 119.743 3.52399C119.743 4.00768 119.725 4.50864 119.691 5.02687C119.691 5.51056 119.656 6.06334 119.587 6.68522C118.861 6.82342 118.152 6.92706 117.46 6.99616C116.768 7.06526 116.076 7.09981 115.384 7.09981C114.727 7.09981 114.052 7.06526 113.361 6.99616C112.703 6.92706 112.029 6.82342 111.337 6.68522C111.268 6.09789 111.216 5.56238 111.181 5.0787C111.147 4.56046 111.129 4.0595 111.129 3.57582C111.129 3.12668 111.147 2.643 111.181 2.12476C111.216 1.60653 111.268 1.03647 111.337 0.414588C112.029 0.241843 112.721 0.138197 113.412 0.103648C114.139 0.0345496 114.848 0 115.54 0C116.197 0 116.854 0.0345496 117.512 0.103648C118.203 0.138197 118.895 0.241843 119.587 0.414588ZM119.587 35.0326H111.285V9.79463H119.587V35.0326ZM133.634 35.0326H125.332V9.79463H133.219L133.634 14.4069H133.789C134.274 12.8522 135.139 11.6603 136.384 10.8311C137.629 9.96737 139.359 9.53551 141.573 9.53551C144.582 9.53551 146.796 10.382 148.214 12.0749C149.667 13.7678 150.393 16.7044 150.393 20.8848V35.0326H142.091L142.04 22.4914C142.04 20.5566 141.745 19.1747 141.157 18.3455C140.569 17.5163 139.462 17.1017 137.837 17.1017C136.315 17.1017 135.242 17.4818 134.62 18.2418C133.997 18.9674 133.668 20.2284 133.634 22.0249V35.0326ZM178.349 34.2034C177.381 34.5489 176.032 34.8599 174.302 35.1363C172.607 35.3781 170.584 35.499 168.231 35.499C165.256 35.499 162.714 35.119 160.604 34.3589C158.528 33.5643 156.955 32.2342 155.882 30.3685C154.81 28.4683 154.274 25.8426 154.274 22.4914C154.274 17.9309 155.311 14.6315 157.387 12.5931C159.497 10.5547 162.749 9.53551 167.142 9.53551C170.29 9.53551 172.763 9.98465 174.562 10.8829C176.395 11.7812 177.692 13.0595 178.453 14.7178C179.249 16.3416 179.647 18.2764 179.647 20.5221C179.647 21.1785 179.612 21.8868 179.543 22.6468C179.508 23.4069 179.422 24.1497 179.283 24.8752L179.076 25.0825H162.005C162.247 26.6027 162.956 27.6046 164.132 28.0883C165.343 28.572 167.297 28.8138 169.995 28.8138C171.794 28.8138 173.282 28.7793 174.458 28.7102C175.669 28.6065 176.896 28.4683 178.142 28.2956L178.349 28.451V34.2034ZM172.434 19.6411C172.434 18.8119 172.296 18.1036 172.019 17.5163C171.777 16.8944 171.275 16.428 170.514 16.1171C169.753 15.7716 168.629 15.5988 167.142 15.5988C164.962 15.5988 163.527 15.9789 162.835 16.739C162.178 17.4645 161.849 18.4319 161.849 19.6411H172.434Z" fill="#F6F5F3"/>
<path d="M74.1988 15.6334H60.3622V29.453H74.1988V15.6334Z" fill="#F6F5F3"/>
<path fill-rule="evenodd" clip-rule="evenodd" d="M64.8366 18.2246H69.7243C70.0426 18.2246 70.3498 18.3414 70.5873 18.5529C70.825 18.7645 70.9764 19.0558 71.0129 19.3716L71.7116 25.4176C71.7326 25.5991 71.7149 25.7829 71.6597 25.9571C71.6046 26.1313 71.5132 26.2918 71.3914 26.4282C71.2697 26.5645 71.1206 26.6737 70.9537 26.7484C70.7868 26.8231 70.606 26.8618 70.4231 26.8618H64.1378C63.9549 26.8618 63.7741 26.8231 63.6072 26.7484C63.4404 26.6737 63.2912 26.5645 63.1694 26.4282C63.0478 26.2918 62.9563 26.1313 62.9012 25.9571C62.846 25.7829 62.8283 25.5991 62.8493 25.4176L63.548 19.3716C63.5845 19.0558 63.736 18.7645 63.9736 18.5529C64.2112 18.3414 64.5183 18.2246 64.8366 18.2246ZM62.2595 19.223C62.3325 18.5915 62.6354 18.0088 63.1105 17.5857C63.5857 17.1628 64.2001 16.9291 64.8366 16.929H69.7243C70.3608 16.9291 70.9752 17.1628 71.4504 17.5857C71.9255 18.0088 72.2284 18.5915 72.3014 19.223L73.0002 25.2691C73.0421 25.632 73.0067 25.9997 72.8964 26.348C72.786 26.6963 72.6031 27.0173 72.3598 27.2901C72.1164 27.5629 71.8181 27.7811 71.4843 27.9306C71.1506 28.0801 70.7889 28.1574 70.4231 28.1574H64.1378C63.772 28.1574 63.4104 28.0801 63.0766 27.9306C62.7428 27.7811 62.4445 27.5629 62.2011 27.2901C61.9578 27.0173 61.7749 26.6963 61.6645 26.348C61.5542 25.9997 61.5188 25.632 61.5608 25.2691L62.2595 19.223ZM64.6861 20.1679C64.6861 19.9961 64.7544 19.8313 64.8761 19.7099C64.9977 19.5884 65.1627 19.5201 65.3347 19.5201C65.5067 19.5201 65.6717 19.5884 65.7933 19.7099C65.915 19.8313 65.9833 19.9961 65.9833 20.1679V20.3839C65.9833 20.7275 66.1199 21.0571 66.3632 21.3C66.6064 21.543 66.9364 21.6795 67.2805 21.6795C67.6245 21.6795 67.9545 21.543 68.1977 21.3C68.441 21.0571 68.5776 20.7275 68.5776 20.3839V20.1679C68.5776 19.9961 68.646 19.8313 68.7676 19.7099C68.8892 19.5884 69.0542 19.5201 69.2262 19.5201C69.3982 19.5201 69.5632 19.5884 69.6848 19.7099C69.8065 19.8313 69.8748 19.9961 69.8748 20.1679V20.3839C69.8748 21.071 69.6015 21.7302 69.1149 22.2161C68.6284 22.702 67.9685 22.975 67.2805 22.975C66.5923 22.975 65.9325 22.702 65.446 22.2161C64.9595 21.7302 64.6861 21.071 64.6861 20.3839V20.1679Z" fill="#4CAF50"/>
</svg>
